<svg width="181" height="22" viewBox="0 0 181 22" fill="none" xmlns="http://www.w3.org/2000/svg">
<rect x="19" y="12" width="162" height="10" fill="#5D5FEF" fill-opacity="0.25"/>
<path d="M12.4964 9.32599H10.1058C10.0376 8.93395 9.91193 8.58665 9.72869 8.28409C9.54545 7.97727 9.31747 7.71733 9.04474 7.50426C8.77202 7.29119 8.46094 7.13139 8.11151 7.02486C7.76634 6.91406 7.39347 6.85866 6.9929 6.85866C6.28125 6.85866 5.65057 7.03764 5.10085 7.3956C4.55114 7.74929 4.12074 8.26918 3.80966 8.95526C3.49858 9.63707 3.34304 10.4702 3.34304 11.4545C3.34304 12.456 3.49858 13.2997 3.80966 13.9858C4.125 14.6676 4.5554 15.1832 5.10085 15.5327C5.65057 15.8778 6.27912 16.0504 6.98651 16.0504C7.37855 16.0504 7.74503 15.9993 8.08594 15.897C8.43111 15.7905 8.74006 15.6349 9.01278 15.4304C9.28977 15.2259 9.52202 14.9744 9.70952 14.6761C9.90128 14.3778 10.0334 14.0369 10.1058 13.6534L12.4964 13.6662C12.407 14.2884 12.2131 14.8722 11.9148 15.4176C11.6207 15.9631 11.2351 16.4446 10.7578 16.8622C10.2805 17.2756 9.7223 17.5994 9.0831 17.8338C8.44389 18.0639 7.73438 18.179 6.95455 18.179C5.80398 18.179 4.77699 17.9126 3.87358 17.38C2.97017 16.8473 2.25852 16.0781 1.73864 15.0724C1.21875 14.0668 0.958807 12.8608 0.958807 11.4545C0.958807 10.044 1.22088 8.83807 1.74503 7.83665C2.26918 6.83097 2.98295 6.06179 3.88636 5.52912C4.78977 4.99645 5.8125 4.73011 6.95455 4.73011C7.68324 4.73011 8.3608 4.83239 8.98722 5.03693C9.61364 5.24148 10.1719 5.5419 10.6619 5.93821C11.152 6.33026 11.5547 6.81179 11.87 7.38281C12.1896 7.94957 12.3984 8.5973 12.4964 9.32599ZM22.9203 4.90909H25.2917V13.4616C25.2917 14.3991 25.0701 15.2237 24.627 15.9354C24.188 16.647 23.5701 17.2031 22.7733 17.6037C21.9764 18 21.0453 18.1982 19.9799 18.1982C18.9103 18.1982 17.9771 18 17.1802 17.6037C16.3833 17.2031 15.7654 16.647 15.3265 15.9354C14.8876 15.2237 14.6681 14.3991 14.6681 13.4616V4.90909H17.0396V13.2635C17.0396 13.8089 17.1589 14.2947 17.3975 14.7209C17.6404 15.147 17.9814 15.4815 18.4203 15.7244C18.8592 15.9631 19.3791 16.0824 19.9799 16.0824C20.5808 16.0824 21.1007 15.9631 21.5396 15.7244C21.9828 15.4815 22.3237 15.147 22.5623 14.7209C22.801 14.2947 22.9203 13.8089 22.9203 13.2635V4.90909ZM43.7599 9H42.1747C42.081 8.54403 41.9169 8.14347 41.6825 7.7983C41.4524 7.45312 41.1712 7.16335 40.8388 6.92898C40.5107 6.69034 40.1463 6.51136 39.7457 6.39205C39.3452 6.27273 38.9276 6.21307 38.4929 6.21307C37.7003 6.21307 36.9822 6.41335 36.3388 6.81392C35.6996 7.21449 35.1903 7.80469 34.8111 8.58452C34.4361 9.36435 34.2486 10.321 34.2486 11.4545C34.2486 12.5881 34.4361 13.5447 34.8111 14.3246C35.1903 15.1044 35.6996 15.6946 36.3388 16.0952C36.9822 16.4957 37.7003 16.696 38.4929 16.696C38.9276 16.696 39.3452 16.6364 39.7457 16.517C40.1463 16.3977 40.5107 16.2209 40.8388 15.9865C41.1712 15.7479 41.4524 15.456 41.6825 15.1108C41.9169 14.7614 42.081 14.3608 42.1747 13.9091H43.7599C43.6406 14.5781 43.4233 15.1768 43.108 15.7053C42.7926 16.2337 42.4006 16.6832 41.9318 17.054C41.4631 17.4205 40.9368 17.6996 40.353 17.8913C39.7734 18.0831 39.1534 18.179 38.4929 18.179C37.3764 18.179 36.3835 17.9062 35.5142 17.3608C34.6449 16.8153 33.9609 16.0398 33.4624 15.0341C32.9638 14.0284 32.7145 12.8352 32.7145 11.4545C32.7145 10.0739 32.9638 8.88068 33.4624 7.875C33.9609 6.86932 34.6449 6.09375 35.5142 5.5483C36.3835 5.00284 37.3764 4.73011 38.4929 4.73011C39.1534 4.73011 39.7734 4.82599 40.353 5.01776C40.9368 5.20952 41.4631 5.49077 41.9318 5.86151C42.4006 6.22798 42.7926 6.67543 43.108 7.20384C43.4233 7.72798 43.6406 8.3267 43.7599 9ZM57.367 11.4545C57.367 12.8352 57.1177 14.0284 56.6191 15.0341C56.1206 16.0398 55.4366 16.8153 54.5673 17.3608C53.698 17.9062 52.7051 18.179 51.5886 18.179C50.4721 18.179 49.4792 17.9062 48.6099 17.3608C47.7406 16.8153 47.0566 16.0398 46.5581 15.0341C46.0595 14.0284 45.8102 12.8352 45.8102 11.4545C45.8102 10.0739 46.0595 8.88068 46.5581 7.875C47.0566 6.86932 47.7406 6.09375 48.6099 5.5483C49.4792 5.00284 50.4721 4.73011 51.5886 4.73011C52.7051 4.73011 53.698 5.00284 54.5673 5.5483C55.4366 6.09375 56.1206 6.86932 56.6191 7.875C57.1177 8.88068 57.367 10.0739 57.367 11.4545ZM55.8329 11.4545C55.8329 10.321 55.6433 9.36435 55.264 8.58452C54.889 7.80469 54.3798 7.21449 53.7363 6.81392C53.0971 6.41335 52.3812 6.21307 51.5886 6.21307C50.796 6.21307 50.0779 6.41335 49.4345 6.81392C48.7953 7.21449 48.286 7.80469 47.9068 8.58452C47.5318 9.36435 47.3443 10.321 47.3443 11.4545C47.3443 12.5881 47.5318 13.5447 47.9068 14.3246C48.286 15.1044 48.7953 15.6946 49.4345 16.0952C50.0779 16.4957 50.796 16.696 51.5886 16.696C52.3812 16.696 53.0971 16.4957 53.7363 16.0952C54.3798 15.6946 54.889 15.1044 55.264 14.3246C55.6433 13.5447 55.8329 12.5881 55.8329 11.4545ZM68.6234 4.90909H70.2086V13.5767C70.2086 14.4716 69.9977 15.2706 69.5758 15.9737C69.1582 16.6726 68.568 17.2244 67.8052 17.6293C67.0424 18.0298 66.1475 18.2301 65.1206 18.2301C64.0936 18.2301 63.1987 18.0298 62.4359 17.6293C61.6731 17.2244 61.0808 16.6726 60.6589 15.9737C60.2413 15.2706 60.0325 14.4716 60.0325 13.5767V4.90909H61.6177V13.4489C61.6177 14.0881 61.7583 14.657 62.0396 15.1555C62.3208 15.6499 62.7214 16.0398 63.2413 16.3253C63.7654 16.6065 64.3919 16.7472 65.1206 16.7472C65.8493 16.7472 66.4757 16.6065 66.9998 16.3253C67.524 16.0398 67.9245 15.6499 68.2015 15.1555C68.4828 14.657 68.6234 14.0881 68.6234 13.4489V4.90909ZM73.3743 18V4.90909H77.7976C78.8203 4.90909 79.6598 5.08381 80.3161 5.43324C80.9723 5.77841 81.4581 6.25355 81.7734 6.85866C82.0888 7.46378 82.2464 8.15199 82.2464 8.9233C82.2464 9.6946 82.0888 10.3786 81.7734 10.9751C81.4581 11.5717 80.9744 12.0405 80.3224 12.3814C79.6705 12.718 78.8374 12.8864 77.8232 12.8864H74.2436V11.4545H77.772C78.4709 11.4545 79.0334 11.3523 79.4595 11.1477C79.8899 10.9432 80.201 10.6534 80.3928 10.2784C80.5888 9.89915 80.6868 9.44744 80.6868 8.9233C80.6868 8.39915 80.5888 7.94105 80.3928 7.54901C80.1967 7.15696 79.8835 6.8544 79.4531 6.64134C79.0227 6.42401 78.4538 6.31534 77.7464 6.31534H74.9595V18H73.3743ZM79.5362 12.1193L82.7578 18H80.9169L77.7464 12.1193H79.5362ZM92.0471 8.18182C91.9703 7.53409 91.6593 7.03125 91.1138 6.6733C90.5684 6.31534 89.8993 6.13636 89.1067 6.13636C88.5272 6.13636 88.0201 6.23011 87.5854 6.41761C87.155 6.60511 86.8184 6.86293 86.5755 7.19105C86.3368 7.51918 86.2175 7.89204 86.2175 8.30966C86.2175 8.65909 86.3006 8.95952 86.4668 9.21094C86.6373 9.4581 86.8546 9.66477 87.1188 9.83097C87.383 9.9929 87.66 10.1271 87.9498 10.2337C88.2395 10.3359 88.5059 10.419 88.7488 10.483L90.0783 10.8409C90.4192 10.9304 90.7985 11.054 91.2161 11.2116C91.638 11.3693 92.0407 11.5845 92.4242 11.8572C92.812 12.1257 93.1316 12.4709 93.383 12.8928C93.6344 13.3146 93.7601 13.8324 93.7601 14.446C93.7601 15.1534 93.5748 15.7926 93.204 16.3636C92.8375 16.9347 92.3006 17.3885 91.5932 17.7251C90.8901 18.0618 90.0357 18.2301 89.03 18.2301C88.0925 18.2301 87.2807 18.0788 86.5946 17.7763C85.9128 17.4737 85.3759 17.0518 84.9838 16.5107C84.5961 15.9695 84.3766 15.3409 84.3255 14.625H85.9618C86.0044 15.1193 86.1706 15.5284 86.4604 15.8523C86.7544 16.1719 87.1252 16.4105 87.5726 16.5682C88.0243 16.7216 88.5101 16.7983 89.03 16.7983C89.6351 16.7983 90.1784 16.7003 90.66 16.5043C91.1415 16.304 91.5229 16.027 91.8042 15.6733C92.0854 15.3153 92.226 14.8977 92.226 14.4205C92.226 13.9858 92.1046 13.6321 91.8617 13.3594C91.6188 13.0866 91.2992 12.8651 90.9029 12.6946C90.5066 12.5241 90.0783 12.375 89.6181 12.2472L88.0073 11.7869C86.9846 11.4929 86.1749 11.0732 85.5783 10.5277C84.9817 9.98224 84.6834 9.26847 84.6834 8.38636C84.6834 7.65341 84.8816 7.0142 85.2779 6.46875C85.6784 5.91903 86.2154 5.4929 86.8887 5.19034C87.5662 4.88352 88.3226 4.73011 89.1578 4.73011C90.0016 4.73011 90.7516 4.88139 91.4078 5.18395C92.0641 5.48224 92.584 5.89133 92.9675 6.41122C93.3553 6.93111 93.5598 7.52131 93.5811 8.18182H92.0471ZM96.3665 18V4.90909H104.267V6.31534H97.9517V10.7386H103.858V12.1449H97.9517V16.5938H104.369V18H96.3665ZM112.187 18V4.90909H116.61C117.633 4.90909 118.472 5.08381 119.129 5.43324C119.785 5.77841 120.271 6.25355 120.586 6.85866C120.901 7.46378 121.059 8.15199 121.059 8.9233C121.059 9.6946 120.901 10.3786 120.586 10.9751C120.271 11.5717 119.787 12.0405 119.135 12.3814C118.483 12.718 117.65 12.8864 116.636 12.8864H113.056V11.4545H116.585C117.283 11.4545 117.846 11.3523 118.272 11.1477C118.702 10.9432 119.013 10.6534 119.205 10.2784C119.401 9.89915 119.499 9.44744 119.499 8.9233C119.499 8.39915 119.401 7.94105 119.205 7.54901C119.009 7.15696 118.696 6.8544 118.266 6.64134C117.835 6.42401 117.266 6.31534 116.559 6.31534H113.772V18H112.187ZM118.349 12.1193L121.57 18H119.729L116.559 12.1193H118.349ZM124.237 18H122.575L127.382 4.90909H129.019L133.825 18H132.164L128.252 6.98011H128.149L124.237 18ZM124.851 12.8864H131.55V14.2926H124.851V12.8864ZM133.619 6.31534V4.90909H143.438V6.31534H139.321V18H137.736V6.31534H133.619ZM147.469 4.90909V18H145.884V4.90909H147.469ZM161.028 4.90909V18H159.494L152.361 7.72159H152.233V18H150.648V4.90909H152.182L159.341 15.2131H159.469V4.90909H161.028ZM173.149 9C173.009 8.5696 172.823 8.18395 172.593 7.84304C172.367 7.49787 172.097 7.20383 171.781 6.96094C171.47 6.71804 171.117 6.53267 170.72 6.40483C170.324 6.27699 169.889 6.21307 169.416 6.21307C168.641 6.21307 167.936 6.41335 167.301 6.81392C166.666 7.21449 166.161 7.80469 165.786 8.58452C165.411 9.36435 165.223 10.321 165.223 11.4545C165.223 12.5881 165.413 13.5447 165.792 14.3246C166.171 15.1044 166.685 15.6946 167.333 16.0952C167.98 16.4957 168.709 16.696 169.519 16.696C170.269 16.696 170.929 16.5362 171.5 16.2166C172.075 15.8928 172.523 15.4368 172.843 14.8487C173.166 14.2564 173.328 13.5597 173.328 12.7585L173.814 12.8608H169.877V11.4545H174.862V12.8608C174.862 13.9389 174.632 14.8764 174.172 15.6733C173.716 16.4702 173.085 17.0881 172.28 17.527C171.479 17.9616 170.558 18.179 169.519 18.179C168.36 18.179 167.341 17.9062 166.463 17.3608C165.59 16.8153 164.908 16.0398 164.418 15.0341C163.932 14.0284 163.689 12.8352 163.689 11.4545C163.689 10.419 163.828 9.48793 164.105 8.66122C164.386 7.83026 164.782 7.12287 165.294 6.53906C165.805 5.95526 166.41 5.50781 167.109 5.19673C167.808 4.88565 168.577 4.73011 169.416 4.73011C170.107 4.73011 170.75 4.83452 171.347 5.04332C171.948 5.24787 172.482 5.53977 172.951 5.91903C173.424 6.29403 173.818 6.74361 174.134 7.26776C174.449 7.78764 174.666 8.36506 174.786 9H173.149Z" fill="black"/>
</svg>
