<svg width="7" height="9" viewBox="0 0 7 9" fill="none" xmlns="http://www.w3.org/2000/svg">
<path d="M0 7.33356C0 7.74762 0.335938 8.08356 0.75 8.08356H6.25C6.66406 8.08356 7 7.74762 7 7.33356V3.08356H0V7.33356ZM5 4.27106C5 4.16793 5.08437 4.08356 5.1875 4.08356H5.8125C5.91563 4.08356 6 4.16793 6 4.27106V4.89606C6 4.99918 5.91563 5.08356 5.8125 5.08356H5.1875C5.08437 5.08356 5 4.99918 5 4.89606V4.27106ZM5 6.27106C5 6.16793 5.08437 6.08356 5.1875 6.08356H5.8125C5.91563 6.08356 6 6.16793 6 6.27106V6.89606C6 6.99918 5.91563 7.08356 5.8125 7.08356H5.1875C5.08437 7.08356 5 6.99918 5 6.89606V6.27106ZM3 4.27106C3 4.16793 3.08437 4.08356 3.1875 4.08356H3.8125C3.91563 4.08356 4 4.16793 4 4.27106V4.89606C4 4.99918 3.91563 5.08356 3.8125 5.08356H3.1875C3.08437 5.08356 3 4.99918 3 4.89606V4.27106ZM3 6.27106C3 6.16793 3.08437 6.08356 3.1875 6.08356H3.8125C3.91563 6.08356 4 6.16793 4 6.27106V6.89606C4 6.99918 3.91563 7.08356 3.8125 7.08356H3.1875C3.08437 7.08356 3 6.99918 3 6.89606V6.27106ZM1 4.27106C1 4.16793 1.08438 4.08356 1.1875 4.08356H1.8125C1.91562 4.08356 2 4.16793 2 4.27106V4.89606C2 4.99918 1.91562 5.08356 1.8125 5.08356H1.1875C1.08438 5.08356 1 4.99918 1 4.89606V4.27106ZM1 6.27106C1 6.16793 1.08438 6.08356 1.1875 6.08356H1.8125C1.91562 6.08356 2 6.16793 2 6.27106V6.89606C2 6.99918 1.91562 7.08356 1.8125 7.08356H1.1875C1.08438 7.08356 1 6.99918 1 6.89606V6.27106ZM6.25 1.08356H5.5V0.333557C5.5 0.196057 5.3875 0.0835571 5.25 0.0835571H4.75C4.6125 0.0835571 4.5 0.196057 4.5 0.333557V1.08356H2.5V0.333557C2.5 0.196057 2.3875 0.0835571 2.25 0.0835571H1.75C1.6125 0.0835571 1.5 0.196057 1.5 0.333557V1.08356H0.75C0.335938 1.08356 0 1.41949 0 1.83356V2.58356H7V1.83356C7 1.41949 6.66406 1.08356 6.25 1.08356Z" fill="black"/>
</svg>
